{
  "accessors": [
    {
      "bufferView": 2,
      "componentType": 5126,
      "count": 3380,
      "max": [
        -36.454498291015625,
        6.021609783172607,
        44.570899963378906
      ],
      "min": [
        -50.018001556396484,
        -11.33329963684082,
        3.1560099124908447
      ],
      "type": "VEC3"
    },
    {
      "bufferView": 2,
      "byteOffset": 40560,
      "componentType": 5126,
      "count": 3380,
      "max": [
        1.0,
        1.0,
        1.0
      ],
      "min": [
        -1.0,
        -1.0,
        -1.0
      ],
      "type": "VEC3"
    },
    {
      "bufferView": 1,
      "componentType": 5126,
      "count": 3380,
      "max": [
        0.9360349774360657,
        0.45364099740982056
      ],
      "min": [
        0.0,
        0.004953000228852034
      ],
      "type": "VEC2"
    },
    {
      "bufferView": 0,
      "componentType": 5125,
      "count": 15072,
      "type": "SCALAR"
    },
    {
      "bufferView": 2,
      "byteOffset": 81120,
      "componentType": 5126,
      "count": 2400,
      "max": [
        45.067501068115234,
        -11.803099632263184,
        9.51039981842041
      ],
      "min": [
        33.32659912109375,
        -25.227500915527344,
        3.308490037918091
      ],
      "type": "VEC3"
    },
    {
      "bufferView": 2,
      "byteOffset": 109920,
      "componentType": 5126,
      "count": 2400,
      "max": [
        0.9992773532867432,
        0.9909464716911316,
        1.0
      ],
      "min": [
        -0.9984185099601746,
        -0.9924323558807373,
        -0.9999998807907104
      ],
      "type": "VEC3"
    },
    {
      "bufferView": 1,
      "byteOffset": 27040,
      "componentType": 5126,
      "count": 2400,
      "max": [
        0.9975069761276245,
        0.35689499974250793
      ],
      "min": [
        0.015447000041604042,
        9.999999974752427e-07
      ],
      "type": "VEC2"
    },
    {
      "bufferView": 0,
      "byteOffset": 60288,
      "componentType": 5125,
      "count": 10920,
      "type": "SCALAR"
    },
    {
      "bufferView": 2,
      "byteOffset": 138720,
      "componentType": 5126,
      "count": 20795,
      "max": [
        22.761600494384766,
        -5.808159828186035,
        45.14649963378906
      ],
      "min": [
        5.244840145111084,
        -38.763099670410156,
        3.3785200119018555
      ],
      "type": "VEC3"
    },
    {
      "bufferView": 2,
      "byteOffset": 388260,
      "componentType": 5126,
      "count": 20795,
      "max": [
        0.9999457597732544,
        0.9999335408210754,
        0.9996373653411865
      ],
      "min": [
        -0.9999792575836182,
        -0.9999445080757141,
        -0.9999544620513916
      ],
      "type": "VEC3"
    },
    {
      "bufferView": 3,
      "componentType": 5126,
      "count": 20795,
      "max": [
        0.9999317526817322,
        0.9999775886535645,
        0.999998152256012,
        1.0
      ],
      "min": [
        -0.9999330043792725,
        -0.9995282888412476,
        -0.9999938607215881,
        -1.0
      ],
      "type": "VEC4"
    },
    {
      "bufferView": 1,
      "byteOffset": 46240,
      "componentType": 5126,
      "count": 20795,
      "max": [
        0.5673390030860901,
        0.27355700731277466
      ],
      "min": [
        0.011586000211536884,
        0.0053610000759363174
      ],
      "type": "VEC2"
    },
    {
      "bufferView": 0,
      "byteOffset": 103968,
      "componentType": 5125,
      "count": 118860,
      "type": "SCALAR"
    },
    {
      "bufferView": 2,
      "byteOffset": 637800,
      "componentType": 5126,
      "count": 13777,
      "max": [
        40.755401611328125,
        52.644100189208984,
        89.07599639892578
      ],
      "min": [
        -43.92340087890625,
        -29.939899444580078,
        1.617550015449524
      ],
      "type": "VEC3"
    },
    {
      "bufferView": 2,
      "byteOffset": 803124,
      "componentType": 5126,
      "count": 13777,
      "max": [
        0.9998689293861389,
        0.999981701374054,
        0.9999956488609314
      ],
      "min": [
        -0.9999856352806091,
        -0.9999934434890747,
        -0.9997314214706421
      ],
      "type": "VEC3"
    },
    {
      "bufferView": 1,
      "byteOffset": 212600,
      "componentType": 5126,
      "count": 13777,
      "max": [
        0.9286109805107117,
        0.6978390216827393
      ],
      "min": [
        0.0,
        9.999999974752427e-07
      ],
      "type": "VEC2"
    },
    {
      "bufferView": 0,
      "byteOffset": 579408,
      "componentType": 5125,
      "count": 72078,
      "type": "SCALAR"
    },
    {
      "bufferView": 2,
      "byteOffset": 968448,
      "componentType": 5126,
      "count": 288,
      "max": [
        39.701900482177734,
        50.743099212646484,
        72.60379791259766
      ],
      "min": [
        -20.537200927734375,
        36.133399963378906,
        4.192450046539307
      ],
      "type": "VEC3"
    },
    {
      "bufferView": 2,
      "byteOffset": 971904,
      "componentType": 5126,
      "count": 288,
      "max": [
        1.0,
        1.0,
        1.0
      ],
      "min": [
        -1.0,
        -1.0,
        -1.0
      ],
      "type": "VEC3"
    },
    {
      "bufferView": 1,
      "byteOffset": 322816,
      "componentType": 5126,
      "count": 288,
      "max": [
        0.9513139724731445,
        0.4405680000782013
      ],
      "min": [
        0.0,
        9.999999974752427e-07
      ],
      "type": "VEC2"
    },
    {
      "bufferView": 0,
      "byteOffset": 867720,
      "componentType": 5125,
      "count": 504,
      "type": "SCALAR"
    },
    {
      "bufferView": 2,
      "byteOffset": 975360,
      "componentType": 5126,
      "count": 8084,
      "max": [
        -25.748899459838867,
        -18.42729949951172,
        79.97509765625
      ],
      "min": [
        -49.99700164794922,
        -50.26139831542969,
        3.378740072250366
      ],
      "type": "VEC3"
    },
    {
      "bufferView": 2,
      "byteOffset": 1072368,
      "componentType": 5126,
      "count": 8084,
      "max": [
        1.0,
        1.0,
        1.0
      ],
      "min": [
        -1.0,
        -1.0,
        -1.0
      ],
      "type": "VEC3"
    },
    {
      "bufferView": 3,
      "byteOffset": 332720,
      "componentType": 5126,
      "count": 8084,
      "max": [
        1.0,
        1.0,
        1.0,
        1.0
      ],
      "min": [
        -1.0,
        -1.0,
        -1.0,
        -1.0
      ],
      "type": "VEC4"
    },
    {
      "bufferView": 1,
      "byteOffset": 325120,
      "componentType": 5126,
      "count": 8084,
      "max": [
        0.9969509840011597,
        0.6009209752082825
      ],
      "min": [
        0.0,
        0.0
      ],
      "type": "VEC2"
    },
    {
      "bufferView": 0,
      "byteOffset": 869736,
      "componentType": 5125,
      "count": 42591,
      "type": "SCALAR"
    },
    {
      "bufferView": 2,
      "byteOffset": 1169376,
      "componentType": 5126,
      "count": 10597,
      "max": [
        -1.5641200542449951,
        0.34007999300956726,
        11.065099716186523
      ],
      "min": [
        -39.467098236083984,
        -42.70949935913086,
        3.3047099113464355
      ],
      "type": "VEC3"
    },
    {
      "bufferView": 2,
      "byteOffset": 1296540,
      "componentType": 5126,
      "count": 10597,
      "max": [
        0.9994519948959351,
        0.9999962449073792,
        1.0
      ],
      "min": [
        -0.9988382458686829,
        -0.9999962449073792,
        -1.0
      ],
      "type": "VEC3"
    },
    {
      "bufferView": 1,
      "byteOffset": 389792,
      "componentType": 5126,
      "count": 10597,
      "max": [
        0.8704019784927368,
        0.4140009880065918
      ],
      "min": [
        0.011586000211536884,
        9.999999974752427e-07
      ],
      "type": "VEC2"
    },
    {
      "bufferView": 0,
      "byteOffset": 1040100,
      "componentType": 5125,
      "count": 36876,
      "type": "SCALAR"
    },
    {
      "bufferView": 2,
      "byteOffset": 1423704,
      "componentType": 5126,
      "count": 596,
      "max": [
        50.000099182128906,
        54.0,
        103.34500122070313
      ],
      "min": [
        -54.80329895019531,
        -49.35210037231445,
        0.0
      ],
      "type": "VEC3"
    },
    {
      "bufferView": 2,
      "byteOffset": 1430856,
      "componentType": 5126,
      "count": 596,
      "max": [
        1.0,
        1.0,
        1.0
      ],
      "min": [
        -1.0,
        -1.0,
        -1.0
      ],
      "type": "VEC3"
    },
    {
      "bufferView": 1,
      "byteOffset": 474568,
      "componentType": 5126,
      "count": 596,
      "max": [
        1.0,
        0.9929239749908447
      ],
      "min": [
        0.0,
        9.999999974752427e-07
      ],
      "type": "VEC2"
    },
    {
      "bufferView": 0,
      "byteOffset": 1187604,
      "componentType": 5125,
      "count": 1926,
      "type": "SCALAR"
    }
  ],
  "asset": {
    "extras": {
      "author": "Iman Aliakbar (https://sketchfab.com/Iman.Aliakbar)",
      "license": "CC-BY-4.0 (http://creativecommons.org/licenses/by/4.0/)",
      "source": "https://sketchfab.com/3d-models/boy-room-19035fc846034003b76e2914ba6dd7a6",
      "title": "Boy Room"
    },
    "generator": "Sketchfab-12.67.0",
    "version": "2.0"
  },
  "bufferViews": [
    {
      "buffer": 0,
      "byteLength": 1195308,
      "name": "floatBufferViews",
      "target": 34963
    },
    {
      "buffer": 0,
      "byteLength": 479336,
      "byteOffset": 1195308,
      "byteStride": 8,
      "name": "floatBufferViews",
      "target": 34962
    },
    {
      "buffer": 0,
      "byteLength": 1438008,
      "byteOffset": 1674644,
      "byteStride": 12,
      "name": "floatBufferViews",
      "target": 34962
    },
    {
      "buffer": 0,
      "byteLength": 462064,
      "byteOffset": 3112652,
      "byteStride": 16,
      "name": "floatBufferViews",
      "target": 34962
    }
  ],
  "buffers": [
    {
      "byteLength": 3574716,
      "uri": "scene.bin"
    }
  ],
  "extensionsRequired": [
    "KHR_materials_pbrSpecularGlossiness"
  ],
  "extensionsUsed": [
    "KHR_materials_pbrSpecularGlossiness"
  ],
  "images": [
    {
      "uri": "textures/Manster_Manster_Dertish_diffuse.jpeg"
    },
    {
      "uri": "textures/Manster_Manster_Dertish_specularGlossiness.png"
    },
    {
      "uri": "textures/Manster_Manster_Dertish_occlusion.png"
    },
    {
      "uri": "textures/Manster_Manster_lambert1SG_diffuse.jpeg"
    },
    {
      "uri": "textures/Manster_Manster_lambert1SG_specularGlossiness.png"
    },
    {
      "uri": "textures/Manster_Manster_lambert1SG_occlusion.png"
    },
    {
      "uri": "textures/Manster_boy_diffuse.jpeg"
    },
    {
      "uri": "textures/Manster_boy_specularGlossiness.png"
    },
    {
      "uri": "textures/Manster_boy_normal.png"
    },
    {
      "uri": "textures/Manster_boy_occlusion.png"
    },
    {
      "uri": "textures/Manster_mansta1_diffuse.jpeg"
    },
    {
      "uri": "textures/Manster_mansta1_specularGlossiness.png"
    },
    {
      "uri": "textures/Manster_mansta1_occlusion.png"
    },
    {
      "uri": "textures/Manster_pic1_diffuse.jpeg"
    },
    {
      "uri": "textures/Manster_pic1_specularGlossiness.png"
    },
    {
      "uri": "textures/Manster_pic1_occlusion.png"
    },
    {
      "uri": "textures/Manster_schrank_diffuse.jpeg"
    },
    {
      "uri": "textures/Manster_schrank_specularGlossiness.png"
    },
    {
      "uri": "textures/Manster_schrank_normal.png"
    },
    {
      "uri": "textures/Manster_schrank_occlusion.png"
    },
    {
      "uri": "textures/Manster_toy3_diffuse.jpeg"
    },
    {
      "uri": "textures/Manster_toy3_occlusion.png"
    },
    {
      "uri": "textures/Manster_wall1_diffuse.jpeg"
    },
    {
      "uri": "textures/Manster_wall1_specularGlossiness.png"
    },
    {
      "uri": "textures/Manster_wall1_occlusion.png"
    }
  ],
  "materials": [
    {
      "doubleSided": true,
      "extensions": {
        "KHR_materials_pbrSpecularGlossiness": {
          "diffuseFactor": [
            1.0,
            1.0,
            1.0,
            1.0
          ],
          "diffuseTexture": {
            "index": 0
          },
          "glossinessFactor": 1.0,
          "specularFactor": [
            0.0,
            0.0,
            0.0
          ],
          "specularGlossinessTexture": {
            "index": 1
          }
        }
      },
      "name": "Manster_Manster_Dertish",
      "occlusionTexture": {
        "index": 2
      }
    },
    {
      "doubleSided": true,
      "extensions": {
        "KHR_materials_pbrSpecularGlossiness": {
          "diffuseFactor": [
            1.0,
            1.0,
            1.0,
            1.0
          ],
          "diffuseTexture": {
            "index": 3
          },
          "glossinessFactor": 1.0,
          "specularFactor": [
            0.0,
            0.0,
            0.0
          ],
          "specularGlossinessTexture": {
            "index": 4
          }
        }
      },
      "name": "Manster_Manster_lambert1SG",
      "occlusionTexture": {
        "index": 5
      }
    },
    {
      "doubleSided": true,
      "extensions": {
        "KHR_materials_pbrSpecularGlossiness": {
          "diffuseFactor": [
            1.0,
            1.0,
            1.0,
            1.0
          ],
          "diffuseTexture": {
            "index": 6
          },
          "glossinessFactor": 1.0,
          "specularFactor": [
            0.0,
            0.0,
            0.0
          ],
          "specularGlossinessTexture": {
            "index": 7
          }
        }
      },
      "name": "Manster_boy",
      "normalTexture": {
        "index": 8
      },
      "occlusionTexture": {
        "index": 9
      }
    },
    {
      "doubleSided": true,
      "extensions": {
        "KHR_materials_pbrSpecularGlossiness": {
          "diffuseFactor": [
            1.0,
            1.0,
            1.0,
            1.0
          ],
          "diffuseTexture": {
            "index": 10
          },
          "glossinessFactor": 1.0,
          "specularFactor": [
            1.0,
            1.0,
            1.0
          ],
          "specularGlossinessTexture": {
            "index": 11
          }
        }
      },
      "name": "Manster_mansta1",
      "occlusionTexture": {
        "index": 12
      }
    },
    {
      "doubleSided": true,
      "extensions": {
        "KHR_materials_pbrSpecularGlossiness": {
          "diffuseFactor": [
            1.0,
            1.0,
            1.0,
            1.0
          ],
          "diffuseTexture": {
            "index": 13
          },
          "glossinessFactor": 1.0,
          "specularFactor": [
            0.0,
            0.0,
            0.0
          ],
          "specularGlossinessTexture": {
            "index": 14
          }
        }
      },
      "name": "Manster_pic1",
      "occlusionTexture": {
        "index": 15
      }
    },
    {
      "doubleSided": true,
      "extensions": {
        "KHR_materials_pbrSpecularGlossiness": {
          "diffuseFactor": [
            1.0,
            1.0,
            1.0,
            1.0
          ],
          "diffuseTexture": {
            "index": 16
          },
          "glossinessFactor": 1.0,
          "specularFactor": [
            0.0,
            0.0,
            0.0
          ],
          "specularGlossinessTexture": {
            "index": 17
          }
        }
      },
      "name": "Manster_schrank",
      "normalTexture": {
        "index": 18
      },
      "occlusionTexture": {
        "index": 19
      }
    },
    {
      "doubleSided": true,
      "extensions": {
        "KHR_materials_pbrSpecularGlossiness": {
          "diffuseFactor": [
            1.0,
            1.0,
            1.0,
            1.0
          ],
          "diffuseTexture": {
            "index": 20
          },
          "glossinessFactor": 1.0,
          "specularFactor": [
            0.0,
            0.0,
            0.0
          ],
          "specularGlossinessTexture": {
            "index": 17
          }
        }
      },
      "name": "Manster_toy3",
      "occlusionTexture": {
        "index": 21
      }
    },
    {
      "doubleSided": true,
      "extensions": {
        "KHR_materials_pbrSpecularGlossiness": {
          "diffuseFactor": [
            1.0,
            1.0,
            1.0,
            1.0
          ],
          "diffuseTexture": {
            "index": 22
          },
          "glossinessFactor": 1.0,
          "specularFactor": [
            0.0,
            0.0,
            0.0
          ],
          "specularGlossinessTexture": {
            "index": 23
          }
        }
      },
      "name": "Manster_wall1",
      "occlusionTexture": {
        "index": 24
      }
    }
  ],
  "meshes": [
    {
      "name": "Object_0",
      "primitives": [
        {
          "attributes": {
            "NORMAL": 1,
            "POSITION": 0,
            "TEXCOORD_0": 2
          },
          "indices": 3,
          "material": 0,
          "mode": 4
        }
      ]
    },
    {
      "name": "Object_1",
      "primitives": [
        {
          "attributes": {
            "NORMAL": 5,
            "POSITION": 4,
            "TEXCOORD_0": 6
          },
          "indices": 7,
          "material": 1,
          "mode": 4
        }
      ]
    },
    {
      "name": "Object_2",
      "primitives": [
        {
          "attributes": {
            "NORMAL": 9,
            "POSITION": 8,
            "TANGENT": 10,
            "TEXCOORD_0": 11
          },
          "indices": 12,
          "material": 2,
          "mode": 4
        }
      ]
    },
    {
      "name": "Object_3",
      "primitives": [
        {
          "attributes": {
            "NORMAL": 14,
            "POSITION": 13,
            "TEXCOORD_0": 15
          },
          "indices": 16,
          "material": 3,
          "mode": 4
        }
      ]
    },
    {
      "name": "Object_4",
      "primitives": [
        {
          "attributes": {
            "NORMAL": 18,
            "POSITION": 17,
            "TEXCOORD_0": 19
          },
          "indices": 20,
          "material": 4,
          "mode": 4
        }
      ]
    },
    {
      "name": "Object_5",
      "primitives": [
        {
          "attributes": {
            "NORMAL": 22,
            "POSITION": 21,
            "TANGENT": 23,
            "TEXCOORD_0": 24
          },
          "indices": 25,
          "material": 5,
          "mode": 4
        }
      ]
    },
    {
      "name": "Object_6",
      "primitives": [
        {
          "attributes": {
            "NORMAL": 27,
            "POSITION": 26,
            "TEXCOORD_0": 28
          },
          "indices": 29,
          "material": 6,
          "mode": 4
        }
      ]
    },
    {
      "name": "Object_7",
      "primitives": [
        {
          "attributes": {
            "NORMAL": 31,
            "POSITION": 30,
            "TEXCOORD_0": 32
          },
          "indices": 33,
          "material": 7,
          "mode": 4
        }
      ]
    }
  ],
  "nodes": [
    {
      "children": [
        1
      ],
      "matrix": [
        1.0,
        0.0,
        0.0,
        0.0,
        0.0,
        2.220446049250313e-16,
        -1.0,
        0.0,
        0.0,
        1.0,
        2.220446049250313e-16,
        0.0,
        0.0,
        0.0,
        0.0,
        1.0
      ],
      "name": "Sketchfab_model"
    },
    {
      "children": [
        2,
        3,
        4,
        5,
        6,
        7,
        8,
        9
      ],
      "name": "manstar.obj.cleaner.materialmerger.gles"
    },
    {
      "mesh": 0,
      "name": "Object_2"
    },
    {
      "mesh": 1,
      "name": "Object_3"
    },
    {
      "mesh": 2,
      "name": "Object_4"
    },
    {
      "mesh": 3,
      "name": "Object_5"
    },
    {
      "mesh": 4,
      "name": "Object_6"
    },
    {
      "mesh": 5,
      "name": "Object_7"
    },
    {
      "mesh": 6,
      "name": "Object_8"
    },
    {
      "mesh": 7,
      "name": "Object_9"
    }
  ],
  "samplers": [
    {
      "magFilter": 9729,
      "minFilter": 9987,
      "wrapS": 10497,
      "wrapT": 10497
    }
  ],
  "scene": 0,
  "scenes": [
    {
      "name": "Sketchfab_Scene",
      "nodes": [
        0
      ]
    }
  ],
  "textures": [
    {
      "sampler": 0,
      "source": 0
    },
    {
      "sampler": 0,
      "source": 1
    },
    {
      "sampler": 0,
      "source": 2
    },
    {
      "sampler": 0,
      "source": 3
    },
    {
      "sampler": 0,
      "source": 4
    },
    {
      "sampler": 0,
      "source": 5
    },
    {
      "sampler": 0,
      "source": 6
    },
    {
      "sampler": 0,
      "source": 7
    },
    {
      "sampler": 0,
      "source": 8
    },
    {
      "sampler": 0,
      "source": 9
    },
    {
      "sampler": 0,
      "source": 10
    },
    {
      "sampler": 0,
      "source": 11
    },
    {
      "sampler": 0,
      "source": 12
    },
    {
      "sampler": 0,
      "source": 13
    },
    {
      "sampler": 0,
      "source": 14
    },
    {
      "sampler": 0,
      "source": 15
    },
    {
      "sampler": 0,
      "source": 16
    },
    {
      "sampler": 0,
      "source": 17
    },
    {
      "sampler": 0,
      "source": 18
    },
    {
      "sampler": 0,
      "source": 19
    },
    {
      "sampler": 0,
      "source": 20
    },
    {
      "sampler": 0,
      "source": 21
    },
    {
      "sampler": 0,
      "source": 22
    },
    {
      "sampler": 0,
      "source": 23
    },
    {
      "sampler": 0,
      "source": 24
    }
  ]
}
